<svg viewBox="0 0 800 800" xmlns="http://www.w3.org/2000/svg"><path d="M886.3447274199423,465.3846624954883 L518.6907062386946,275.48542463477486 M591.3797196738471,684.339396725996 L886.3447274199423,465.3846624954883 M218.85776102803447,469.2637436227893 L591.3797196738471,684.339396725996 M218.85776102803447,469.2637436227893 L518.6907062386946,275.48542463477486 M518.6907062386946,275.48542463477486 L518.958445344687,272.7075896889824 M886.8012819634016,462.5264994684891 L518.958445344687,272.7075896889824 M886.3447274199423,465.3846624954883 L886.8012819634016,462.5264994684891 M882.6201639082985,465.6278086560294 L886.8012819634016,462.5264994684891 M882.6201639082985,465.6278086560294 L883.075612085828,462.7657314439606 M596.8051676869452,674.9422451134866 L883.075612085828,462.7657314439606 M596.4635352783243,677.8820836489344 L596.8051676869452,674.9422451134866 M591.7189798047314,681.4013178076277 L596.4635352783243,677.8820836489344 M591.3797196738471,684.339396725996 L591.7189798047314,681.4013178076277 M219.00133032958047,466.40404638891357 L591.7189798047314,681.4013178076277 M218.85776102803447,469.2637436227893 L219.00133032958047,466.40404638891357 M514.6922906327685,275.4624470004708 L518.958445344687,272.7075896889824 M514.6922906327685,275.4624470004708 L514.9586149952199,272.68091204030077 M223.952078411225,460.4401270852218 L514.9586149952199,272.68091204030077 M223.8062532773091,463.3012810164556 L223.952078411225,460.4401270852218 M219.00133032958047,466.40404638891357 L223.8062532773091,463.3012810164556 M514.6922906327685,275.4624470004708 L882.6201639082985,465.6278086560294 M514.9586149952199,272.68091204030077 L883.075612085828,462.7657314439606 M596.8051676869452,674.9422451134866 L223.952078411225,460.4401270852218 M596.4635352783243,677.8820836489344 L223.8062532773091,463.3012810164556" stroke="black"  stroke-width="4"  fill="red"/>
<path d="M214.928775428197,118.5874830137995 L-86.80128196340166,292.79141287144023 M-86.80128196340166,292.79141287144023 L-86.80128196340166,290.0058336176951 M-81.98080394199081,287.2252043048717 L-86.80128196340166,290.0058336176951 M-81.98080394199081,287.2252043048717 L-81.97866150731454,284.4383892158763 M210.87412930810888,115.66060327400396 L-81.97866150731454,284.4383892158763 M210.74902932438476,118.36785208731362 L210.87412930810888,115.66060327400396 M215.0554729118802,115.88373677339189 L210.74902932438476,118.36785208731362 M214.928775428197,118.5874830137995 L215.0554729118802,115.88373677339189 M-86.80128196340166,292.79141287144023 L218.85776102803447,469.2637436227893 M218.85776102803447,469.2637436227893 L518.6907062386946,275.48542463477486 M518.6907062386946,275.48542463477486 L214.928775428197,118.5874830137995 M218.85776102803447,469.2637436227893 L219.00133032958047,466.40404638891357 M-86.80128196340166,290.0058336176951 L219.00133032958047,466.40404638891357 M219.00133032958047,466.40404638891357 L223.8062532773091,463.3012810164556 M223.8062532773091,463.3012810164556 L-81.98080394199081,287.2252043048717 M223.8062532773091,463.3012810164556 L223.952078411225,460.4401270852218 M223.952078411225,460.4401270852218 L-81.97866150731454,284.4383892158763 M223.952078411225,460.4401270852218 L514.9586149952199,272.68091204030077 M210.87412930810888,115.66060327400396 L514.9586149952199,272.68091204030077 M514.6922906327685,275.4624470004708 L514.9586149952199,272.68091204030077 M210.74902932438476,118.36785208731362 L514.6922906327685,275.4624470004708 M514.6922906327685,275.4624470004708 L518.958445344687,272.7075896889824 M518.958445344687,272.7075896889824 L215.0554729118802,115.88373677339189 M518.6907062386946,275.48542463477486 L518.958445344687,272.7075896889824" stroke="black"  stroke-width="4"  fill="red"/></svg>