<svg viewBox="0 0 800 800" xmlns="http://www.w3.org/2000/svg"><path d="M363.5869221206474,232.92029699365577 L134.95002755135266,372.6887856567571 M134.95002755135266,372.6887856567571 L134.93787363183202,364.9910612852141 M148.66374297336057,356.6274666256296 L134.93787363183202,364.9910612852141 M148.66374297336057,356.6274666256296 L148.67585399669474,348.9149568775522 M352.06741363288313,225.3866204067088 L148.67585399669474,348.9149568775522 M351.7158175244235,232.90158784324393 L352.06741363288313,225.3866204067088 M363.95654542289174,225.44293557622063 L351.7158175244235,232.90158784324393 M363.5869221206474,232.92029699365577 L363.95654542289174,225.44293557622063 M134.95002755135266,372.6887856567571 L652.6866117956051,690.3084086254264 M652.6866117956051,690.3084086254264 L875.613775225766,512.0986362646961 M875.613775225766,512.0986362646961 L363.5869221206474,232.92029699365577 M652.6866117956051,690.3084086254264 L653.7124625406283,682.2179894711509 M134.93787363183202,364.9910612852141 L653.7124625406283,682.2179894711509 M653.7124625406283,682.2179894711509 L667.1933494387255,671.4703411442113 M667.1933494387255,671.4703411442113 L148.66374297336057,356.6274666256296 M667.1933494387255,671.4703411442113 L668.2462159891558,663.3583836165349 M668.2462159891558,663.3583836165349 L148.67585399669474,348.9149568775522 M352.06741363288313,225.3866204067088 L866.5081074292073,505.7236050290144 M668.2462159891558,663.3583836165349 L866.5081074292073,505.7236050290144 M865.1441892987393,513.6538689106186 L866.5081074292073,505.7236050290144 M351.7158175244235,232.90158784324393 L865.1441892987393,513.6538689106186 M865.1441892987393,513.6538689106186 L876.9896517903628,504.21006405621483 M876.9896517903628,504.21006405621483 L363.95654542289174,225.44293557622063 M875.613775225766,512.0986362646961 L876.9896517903628,504.21006405621483" stroke="black"  stroke-width="4"  fill="red"/>
<path d="M152.0236752461197,117.56721432809871 L-76.62396500613278,242.89295165329872 M-76.62396500613278,242.89295165329872 L-76.98965179036293,235.39890445050617 M-63.304700159032734,227.92362192531965 L-76.98965179036293,235.39890445050617 M-63.304700159032734,227.92362192531965 L-63.64751515780665,220.41708121412836 M139.75782100362085,109.69159137457365 L-63.64751515780665,220.41708121412836 M139.76107965019128,117.00075451846396 L139.75782100362085,109.69159137457365 M152.03981444707665,110.29360537162881 L139.76107965019128,117.00075451846396 M152.0236752461197,117.56721432809871 L152.03981444707665,110.29360537162881 M-76.62396500613278,242.89295165329872 L130.38821668252604,369.89021840788075 M130.38821668252604,369.89021840788075 L359.0396697908552,230.44094586982493 M359.0396697908552,230.44094586982493 L152.0236752461197,117.56721432809871 M130.38821668252604,369.89021840788075 L130.36800785453403,362.1966212456517 M-76.98965179036293,235.39890445050617 L130.36800785453403,362.1966212456517 M130.36800785453403,362.1966212456517 L144.09385807501724,353.85270568686417 M144.09385807501724,353.85270568686417 L-63.304700159032734,227.92362192531965 M144.09385807501724,353.85270568686417 L144.09788559232317,346.1443753011647 M144.09788559232317,346.1443753011647 L-63.64751515780665,220.41708121412836 M144.09788559232317,346.1443753011647 L347.50257735943103,222.89907917673617 M139.75782100362085,109.69159137457365 L347.50257735943103,222.89907917673617 M347.15899778829737,230.40983318833634 L347.50257735943103,222.89907917673617 M139.76107965019128,117.00075451846396 L347.15899778829737,230.40983318833634 M347.15899778829737,230.40983318833634 L359.4013125139686,222.96775574509974 M359.4013125139686,222.96775574509974 L152.03981444707665,110.29360537162881 M359.0396697908552,230.44094586982493 L359.4013125139686,222.96775574509974" stroke="black"  stroke-width="4"  fill="red"/></svg>